<?xml version="1.0" encoding="utf-8"?>
<!-- Generator: Adobe Illustrator 18.1.0, SVG Export Plug-In . SVG Version: 6.00 Build 0)  -->
<!DOCTYPE svg PUBLIC "-//W3C//DTD SVG 1.1//EN" "http://www.w3.org/Graphics/SVG/1.1/DTD/svg11.dtd">
<svg version="1.1" id="图层_1" xmlns="http://www.w3.org/2000/svg" xmlns:xlink="http://www.w3.org/1999/xlink" x="0px" y="0px"
	 viewBox="0 0 236 117" enable-background="new 0 0 236 117" xml:space="preserve">
<g>
	<path fill="#454545" d="M24.1,27.6c1,0.6,2,0.8,3.1,0.8c1.1,0,2.2-0.2,3.1-0.8c0.9-0.6,1.7-1.3,2.3-2.3c0.6-1,0.8-2,0.9-3.1
		c0-1.1-0.3-2.1-0.9-3.2c-0.6-1-1.4-1.8-2.3-2.3c-1-0.5-2-0.8-3-0.8c-1.1,0-2.1,0.3-3.1,0.8c-1,0.5-1.8,1.3-2.3,2.3
		C21.3,20,21,21,21,22.2c0,1.1,0.3,2.2,0.9,3.1C22.4,26.3,23.2,27,24.1,27.6z M0.7,31.4v6.4l40,0L17.3,55.3h14.3l19.8-15.6l0-8.3
		H0.7z M17.3,1L0,16.9h14.9L27.1,5.5l12.6,11.5h14.6L37.3,1H17.3z M63.3,55.1H102l9.8-7.3l0-46.8l-48.6,0V55.1z M73.1,8H102v16.4
		H73.1V8z M73.1,31.5H102v16.4L73.1,48V31.5z M175.6,33.3h-12.9V0.5h-10v32.8h-32v6.6h26.7l-8.2,8.6h-18.4v6.4l25.3,0L156.7,44
		l7.2,10.9h11.4l-9.9-15l7.1,0L175.6,33.3z M145.8,13.2l-9.7-11.9h-11.5l9.7,11.9H145.8z M124.8,17l9.7,11.9h11.4L136.2,17H124.8z
		 M180.8,55.2h9.4l7.2-13.2h-9.5L180.8,55.2z M212.4,30h-10v3.8h-21.3v6.4h21.3l0,9.3h-4.2l0,6.5h5.1l9.1-6.3v-9.5h20.4l3.1-6.4
		h-23.5V30z M216.3,41.9l8.7,13.1h10l-8.7-13.1H216.3z M195.2,8.5h25.6l-13.9,8.2l-7.7-3.7h-14.8l14.3,7.8l-17.7,8.8h17.4l9.1-4.2
		l9.8,4.2H236l-20-9.2l16.9-10l0-8.3h-33l1.8-2h-11.3l-9.8,10.8h12.2L195.2,8.5z"/>
</g>
</svg>
