<?xml version="1.0" encoding="utf-8"?>
<!-- Generator: Adobe Illustrator 18.1.0, SVG Export Plug-In . SVG Version: 6.00 Build 0)  -->
<!DOCTYPE svg PUBLIC "-//W3C//DTD SVG 1.1//EN" "http://www.w3.org/Graphics/SVG/1.1/DTD/svg11.dtd">
<svg version="1.1" id="图层_1" xmlns="http://www.w3.org/2000/svg" xmlns:xlink="http://www.w3.org/1999/xlink" x="0px" y="0px"
	 viewBox="0 0 236 109" enable-background="new 0 0 236 109" xml:space="preserve">
<g>
	<path fill="#E1E1E1" d="M24.1,27.6c1,0.6,2,0.8,3.1,0.8c1.1,0,2.2-0.2,3.1-0.8c0.9-0.6,1.7-1.3,2.3-2.3c0.6-1,0.8-2,0.9-3.1
		c0-1.1-0.3-2.1-0.9-3.2c-0.6-1-1.4-1.8-2.3-2.3c-1-0.5-2-0.8-3-0.8c-1.1,0-2.1,0.3-3.1,0.8c-1,0.5-1.8,1.3-2.3,2.3
		C21.3,20,21,21,21,22.2c0,1.1,0.3,2.2,0.9,3.1C22.4,26.3,23.2,27,24.1,27.6z M0.7,31.4v6.4l40,0L17.3,55.3h14.3l19.8-15.6l0-8.3
		H0.7z M17.3,1L0,16.9h14.9L27.1,5.5l12.6,11.5h14.6L37.3,1H17.3z M63.3,55.1H102l9.8-7.3l0-46.8l-48.6,0V55.1z M73.1,8H102v16.4
		H73.1V8z M73.1,31.5H102v16.4L73.1,48V31.5z M175.6,33.3h-12.9V0.5h-10v32.8h-32v6.6h26.7l-8.2,8.6h-18.4v6.4l25.3,0L156.7,44
		l7.2,10.9h11.4l-9.9-15l7.1,0L175.6,33.3z M145.8,13.2l-9.7-11.9h-11.5l9.7,11.9H145.8z M124.8,17l9.7,11.9h11.4L136.2,17H124.8z
		 M180.8,55.2h9.4l7.2-13.2h-9.5L180.8,55.2z M212.4,30h-10v3.8h-21.3v6.4h21.3l0,9.3h-4.2l0,6.5h5.1l9.1-6.3v-9.5h20.4l3.1-6.4
		h-23.5V30z M216.3,41.9l8.7,13.1h10l-8.7-13.1H216.3z M195.2,8.5h25.6l-13.9,8.2l-7.7-3.7h-14.8l14.3,7.8l-17.7,8.8h17.4l9.1-4.2
		l9.8,4.2H236l-20-9.2l16.9-10l0-8.3h-33l1.8-2h-11.3l-9.8,10.8h12.2L195.2,8.5z"/>
</g>
<g>
	<path fill="#BCBBBB" d="M64.1,103.4c0.6,1.8,1,3.4,1.1,5.1h3.3c-0.1-1.6-0.6-3.2-1.3-5.1H64.1z M53.5,103.4
		c0.1,0.3,0.1,0.8,0.2,1.4c0.2,1.6,0.4,2.8,0.5,3.7h3.3c-0.2-2-0.5-3.7-0.9-5.1H53.5z M47.5,108.4h3.3c0.2-1.6,0.5-3.2,0.9-5.1h-3
		C48,105.5,47.6,107.2,47.5,108.4z M58.8,103.4c0.6,1.8,0.9,3.5,0.9,5.1h3.4c-0.3-1.8-0.7-3.4-1.3-5.1H58.8z M59.4,87.2h-3.7v6.4
		h-6.4v8.7h14c2.4,0.1,3.5-1.2,3.5-3.7v-5.1h-7.4v-2.2h9.2v-2.2h-9.2V87.2z M63.3,96v2.5c0,0.9-0.5,1.4-1.4,1.4h-9.1V96H63.3z
		 M83.8,91.8h7.8v-2.3h-7.8v-2.2H80v2.2h-7.7v2.3H80v3.6h-9v2.4h9v8h-4.1v-6.1h-3.4v8.3h15.7c2.2,0,3.3-1.1,3.3-3.3v-5.1H88v4.5
		c0,1.1-0.5,1.6-1.5,1.6h-2.7v-8h9v-2.4h-9V91.8z M95.3,108.1h21.4V106H95.3V108.1z M97.7,96.3v8.2h13.4c2.2,0.1,3.2-1,3.2-3.3v-4.9
		c0.7,0.3,1.2,0.4,1.4,0.5c0.4,0.1,0.7,0.2,0.8,0.3V95c-2.4-0.9-3.9-2.2-4.6-3.8h4.4v-2.3h-8.7v-1.7h-3.5v1.7h-8.5v2.3h4.3
		c-0.8,1.6-2.3,2.9-4.6,3.8v2.1c0.2-0.1,0.6-0.2,1-0.3C97,96.6,97.4,96.5,97.7,96.3z M110.8,101.1c0.1,0.9-0.3,1.3-1.2,1.2h-8.5
		v-1.5h9.8V101.1z M110.8,99.1h-9.8v-1.4h9.8V99.1z M103.5,91.2h0.7v3.6h3.5v-3.6h0.8c0.8,1.9,2.1,3.4,3.8,4.3H99.7
		C101.4,94.6,102.6,93.1,103.5,91.2z M129.8,93.8c0.2-0.3,0.3-0.5,0.4-0.7h9.2v-1.9h-8.5l0.4-1.2h1.9c2.1,0,4.3-0.2,6.7-0.6v-2.1
		c-2.2,0.4-4.7,0.6-7.3,0.6h-12.1v2.1h7.2v0.2c-0.1,0.5-0.3,0.8-0.4,1h-6.4v1.9h5.6c-0.1,0.1-0.2,0.3-0.4,0.7
		c-0.1,0.3-0.3,0.5-0.4,0.7h-6.4v2h4.9c-1.3,1.3-2.9,2.5-4.9,3.6v2.2c1-0.4,2.2-1,3.7-1.8v8.1h12.7c2.2,0.1,3.2-1,3.2-3.1v-7.7h-12
		c0.4-0.4,0.8-0.8,1.2-1.2h12.9v-2h-11.5C129.5,94.3,129.6,94.1,129.8,93.8z M134.3,106.6h-8.2v-1.2h9.5
		C135.6,106.2,135.2,106.6,134.3,106.6z M135.6,103.8h-9.5v-1.3h9.5V103.8z M135.6,99.5v1.3h-9.5v-1.3H135.6z M149.8,100.8
		c2.7,0.1,5.6,0.6,8.6,1.5v-2.3c-2.9-0.6-5.7-0.9-8.5-0.9c1.5-0.2,2.9-0.6,4.2-1.1c1.7,0.7,3.8,1.2,6.2,1.4v-1.8
		c-1.4-0.2-2.6-0.5-3.7-0.8c1.2-0.9,2.2-2,3.2-3.4v-1.8h-6.9c0.1-0.2,0.2-0.4,0.3-0.8h-2.8c-0.5,1.3-1.4,2.2-2.6,2.7v1.5
		c0.6-0.1,1.1-0.2,1.5-0.4c0.8,0.8,1.5,1.5,2.3,2.1c-1,0.4-2.3,0.7-3.9,0.9v1.7c0.8-0.1,1.5-0.2,2.2-0.3V100.8z M150.7,94
		c0.4-0.2,0.7-0.4,1-0.8h4.8c-0.8,0.9-1.5,1.6-2.3,2.2c-0.8-0.4-1.4-0.8-2-1.4H150.7z M148.5,103.9c4.2,0.4,7.7,1.1,10.7,2.1v-2.5
		c-3-0.8-6.6-1.3-10.7-1.5V103.9z M143.8,108.3h16.7c2.5,0.1,3.7-1.1,3.6-3.6V87.9h-20.2V108.3z M147.1,90.1h13.7v14.7
		c0.1,1.1-0.4,1.6-1.4,1.5h-12.3V90.1z M188.5,95.5v-2.3h-5v-5.8h-3.5v5.8H174V88h-3.8v14.7c0.1,2-0.6,3.4-2.1,4.1v2.2
		c4.1-1.3,6.1-3.7,5.9-7.3v-1h7.8v7.8h3.7V98.2H174v-2.7H188.5z"/>
</g>
</svg>
