<?xml version="1.0" encoding="utf-8"?>
<!-- Generator: Adobe Illustrator 18.1.0, SVG Export Plug-In . SVG Version: 6.00 Build 0)  -->
<!DOCTYPE svg PUBLIC "-//W3C//DTD SVG 1.1//EN" "http://www.w3.org/Graphics/SVG/1.1/DTD/svg11.dtd">
<svg version="1.1" id="图层_1" xmlns="http://www.w3.org/2000/svg" xmlns:xlink="http://www.w3.org/1999/xlink" x="0px" y="0px"
	 viewBox="0 0 44 44" enable-background="new 0 0 44 44" xml:space="preserve">
<g>
	<path fill="#CECECE" d="M32,30c-2.2,0-4,1.8-4,4s1.8,4,4,4s4-1.8,4-4S34.2,30,32,30z M37.5,23c-1.9,0-3.5,1.6-3.5,3.5
		c0,1.9,1.6,3.5,3.5,3.5s3.5-1.6,3.5-3.5C41,24.6,39.4,23,37.5,23z M34,18c0,1.7,1.3,3,3,3s3-1.3,3-3c0-1.7-1.3-3-3-3S34,16.3,34,18
		z M33,14c1.7,0,3-1.3,3-3c0-1.7-1.3-3-3-3s-3,1.3-3,3C30,12.7,31.3,14,33,14z M30,7.5C30,6.1,28.9,5,27.5,5S25,6.1,25,7.5
		c0,1.4,1.1,2.5,2.5,2.5S30,8.9,30,7.5z M21.5,4C20.1,4,19,5.1,19,6.5C19,7.9,20.1,9,21.5,9S24,7.9,24,6.5C24,5.1,22.9,4,21.5,4z
		 M16,5c-1.1,0-2,0.9-2,2s0.9,2,2,2s2-0.9,2-2S17.1,5,16,5z M10.5,8C9.7,8,9,8.7,9,9.5c0,0.8,0.7,1.5,1.5,1.5S12,10.3,12,9.5
		C12,8.7,11.3,8,10.5,8z M7.5,12C6.7,12,6,12.7,6,13.5C6,14.3,6.7,15,7.5,15S9,14.3,9,13.5C9,12.7,8.3,12,7.5,12z M5,16
		c-0.6,0-1,0.4-1,1s0.4,1,1,1s1-0.4,1-1S5.6,16,5,16z M4.5,20C4.2,20,4,20.2,4,20.5C4,20.8,4.2,21,4.5,21S5,20.8,5,20.5
		C5,20.2,4.8,20,4.5,20z"/>
</g>
</svg>
