<?xml version="1.0" encoding="utf-8"?>
<!-- Generator: Adobe Illustrator 18.1.0, SVG Export Plug-In . SVG Version: 6.00 Build 0)  -->
<!DOCTYPE svg PUBLIC "-//W3C//DTD SVG 1.1//EN" "http://www.w3.org/Graphics/SVG/1.1/DTD/svg11.dtd">
<svg version="1.1" id="图层_1" xmlns="http://www.w3.org/2000/svg" xmlns:xlink="http://www.w3.org/1999/xlink" x="0px" y="0px"
	 viewBox="0 0 42 30" enable-background="new 0 0 42 30" xml:space="preserve">
<g>
	<path fill="#707070" d="M37.5,0h-33C2,0,0,2,0,4.5v21C0,28,2,30,4.5,30h33c2.5,0,4.5-2,4.5-4.5v-21C42,2,40,0,37.5,0z M39,25.5
		c0,0.8-0.7,1.5-1.5,1.5h-33C3.7,27,3,26.3,3,25.5v-21C3,3.7,3.7,3,4.5,3h33C38.3,3,39,3.7,39,4.5V25.5z M21,19.5L13.5,12L6,24h30
		L28.5,7.5L21,19.5z"/>
</g>
</svg>
